<svg width="1400" height="1000" viewBox="0 0 1400 1000" fill="none" xmlns="http://www.w3.org/2000/svg">
  <rect width="1400" height="1000" fill="#0A0B0D"/>
  <ellipse cx="1032" cy="196" rx="308" ry="194" fill="url(#paint0_radial)"/>
  <ellipse cx="282" cy="748" rx="240" ry="160" fill="url(#paint1_radial)"/>
  <g filter="url(#filter0_f)">
    <ellipse cx="694" cy="720" rx="424" ry="78" fill="#000000" fill-opacity="0.55"/>
  </g>
  <ellipse cx="704" cy="674" rx="446" ry="132" fill="#17191D"/>
  <ellipse cx="704" cy="660" rx="394" ry="98" fill="#20232A"/>
  <g>
    <rect x="426" y="468" width="192" height="110" rx="55" fill="#F2EEE7"/>
    <path d="M420 468C458 396 566 378 618 436V548C560 606 462 598 420 468Z" fill="url(#paint2_linear)"/>
  </g>
  <g>
    <rect x="612" y="434" width="204" height="118" rx="59" fill="#F4F0E8"/>
    <path d="M602 438C640 356 764 344 818 410V526C756 590 646 584 602 438Z" fill="url(#paint3_linear)"/>
  </g>
  <g>
    <rect x="814" y="474" width="190" height="106" rx="53" fill="#EFE9DF"/>
    <path d="M804 476C844 402 948 390 1002 446V548C944 604 840 598 804 476Z" fill="url(#paint4_linear)"/>
  </g>
  <circle cx="966" cy="294" r="6" fill="#FFD29A"/>
  <circle cx="998" cy="312" r="4" fill="#FFD29A"/>
  <circle cx="1032" cy="286" r="5" fill="#FFD29A"/>
  <defs>
    <filter id="filter0_f" x="210" y="582" width="968" height="276" filterUnits="userSpaceOnUse" color-interpolation-filters="sRGB">
      <feFlood flood-opacity="0" result="BackgroundImageFix"/>
      <feBlend mode="normal" in="SourceGraphic" in2="BackgroundImageFix" result="shape"/>
      <feGaussianBlur stdDeviation="30" result="effect1_foregroundBlur"/>
    </filter>
    <radialGradient id="paint0_radial" cx="0" cy="0" r="1" gradientUnits="userSpaceOnUse" gradientTransform="translate(1032 196) rotate(90) scale(194 308)">
      <stop stop-color="#F49B38" stop-opacity="0.36"/>
      <stop offset="1" stop-color="#F49B38" stop-opacity="0"/>
    </radialGradient>
    <radialGradient id="paint1_radial" cx="0" cy="0" r="1" gradientUnits="userSpaceOnUse" gradientTransform="translate(282 748) rotate(90) scale(160 240)">
      <stop stop-color="#FFFFFF" stop-opacity="0.08"/>
      <stop offset="1" stop-color="#FFFFFF" stop-opacity="0"/>
    </radialGradient>
    <linearGradient id="paint2_linear" x1="470" y1="402" x2="560" y2="566" gradientUnits="userSpaceOnUse">
      <stop stop-color="#FF9B6A"/>
      <stop offset="1" stop-color="#FF6E3E"/>
    </linearGradient>
    <linearGradient id="paint3_linear" x1="666" y1="368" x2="760" y2="566" gradientUnits="userSpaceOnUse">
      <stop stop-color="#FFAA7A"/>
      <stop offset="1" stop-color="#FF7040"/>
    </linearGradient>
    <linearGradient id="paint4_linear" x1="852" y1="408" x2="948" y2="570" gradientUnits="userSpaceOnUse">
      <stop stop-color="#FFA97A"/>
      <stop offset="1" stop-color="#FF7A44"/>
    </linearGradient>
  </defs>
</svg>
